<svg width="59.611px" height="59.611px" viewBox="-14.17 0 59.611 59.611" xmlns="http://www.w3.org/2000/svg">
  <g id="Group_7226" data-name="Group 7226" transform="translate(-633.192 -1525.937)">
    <g id="Group_7224" data-name="Group 7224">
      <g id="Group_7185" data-name="Group 7185">
        <g id="Group_7184" data-name="Group 7184">
          <g id="Group_7183" data-name="Group 7183">
            <path id="Path_2580" data-name="Path 2580" d="M633.943,1584.8l29.764-42.52v5.669L638.2,1584.8Z" fill="#be8a66"/>
          </g>
        </g>
      </g>
      <g id="Group_7188" data-name="Group 7188">
        <g id="Group_7187" data-name="Group 7187">
          <g id="Group_7186" data-name="Group 7186">
            <path id="Path_2581" data-name="Path 2581" d="M656.266,1558.442a.752.752,0,0,1-.7-.49,1.762,1.762,0,0,0-.981-1.179,2.271,2.271,0,0,0-1.629.309.751.751,0,0,1-.407.12h-8.68a.75.75,0,0,1,0-1.5h8.479a3.549,3.549,0,0,1,2.711-.352,3.163,3.163,0,0,1,1.915,2.082.752.752,0,0,1-.444.964A.767.767,0,0,1,656.266,1558.442Z" fill="#7a7a7a"/>
          </g>
        </g>
      </g>
      <g id="Group_7191" data-name="Group 7191">
        <g id="Group_7190" data-name="Group 7190">
          <g id="Group_7189" data-name="Group 7189">
            <path id="Path_2582" data-name="Path 2582" d="M653.785,1560.922a.738.738,0,0,1-.3-.062.749.749,0,0,1-.392-.985,2.4,2.4,0,0,0-.976-2.805.75.75,0,1,1,.849-1.237,3.858,3.858,0,0,1,1.5,4.636A.751.751,0,0,1,653.785,1560.922Z" fill="#7a7a7a"/>
          </g>
        </g>
      </g>
      <g id="Group_7194" data-name="Group 7194">
        <g id="Group_7193" data-name="Group 7193">
          <g id="Group_7192" data-name="Group 7192">
            <path id="Path_2583" data-name="Path 2583" d="M648.825,1565.883a.744.744,0,0,1-.53-.22,3.483,3.483,0,0,1-.458-4.008l-3.149-2.1a.75.75,0,1,1,.832-1.248l3.721,2.48a.751.751,0,0,1,.2,1.045c-.046.068-1.133,1.727-.091,2.77a.75.75,0,0,1-.53,1.28Z" fill="#7a7a7a"/>
          </g>
        </g>
      </g>
      <g id="Group_7197" data-name="Group 7197">
        <g id="Group_7196" data-name="Group 7196">
          <g id="Group_7195" data-name="Group 7195">
            <path id="Path_2584" data-name="Path 2584" d="M659.455,1529.522a16.063,16.063,0,0,0-5.669-2.51v2.51l-1.418,2.835,1.986.993C655.333,1532.172,657.433,1532,659.455,1529.522Z" fill="#b3b3b3"/>
          </g>
        </g>
      </g>
      <g id="Group_7202" data-name="Group 7202">
        <g id="Group_7199" data-name="Group 7199">
          <g id="Group_7198" data-name="Group 7198">
            <circle id="Ellipse_171" data-name="Ellipse 171" cx="0.709" cy="0.709" r="0.709" transform="translate(650.242 1528.814)" fill="#7a7a7a"/>
          </g>
        </g>
        <g id="Group_7201" data-name="Group 7201">
          <g id="Group_7200" data-name="Group 7200">
            <path id="Path_2585" data-name="Path 2585" d="M650.951,1530.731a1.208,1.208,0,1,1,1.208-1.209A1.21,1.21,0,0,1,650.951,1530.731Zm0-1.417a.208.208,0,1,0,.208.208A.209.209,0,0,0,650.951,1529.314Z" fill="#7a7a7a"/>
          </g>
        </g>
      </g>
      <g id="Group_7205" data-name="Group 7205">
        <g id="Group_7204" data-name="Group 7204">
          <g id="Group_7203" data-name="Group 7203">
            <path id="Path_2586" data-name="Path 2586" d="M633.958,1556.451c-.023.9-.015,1.418-.015,1.418v19.842a4.692,4.692,0,0,0,4.252-4.252v-17.737A12.733,12.733,0,0,1,633.958,1556.451Z" fill="#666"/>
          </g>
        </g>
      </g>
      <g id="Group_7208" data-name="Group 7208">
        <g id="Group_7207" data-name="Group 7207">
          <g id="Group_7206" data-name="Group 7206">
            <path id="Path_2587" data-name="Path 2587" d="M649.534,1535.192a6.481,6.481,0,0,0,4.82-1.842l-1.986-.993,1.418-2.835v-2.51a13.083,13.083,0,0,0-2.835-.324,12.765,12.765,0,0,0-10.655,5.669h4.986A4.521,4.521,0,0,0,649.534,1535.192Z" fill="#333"/>
          </g>
        </g>
      </g>
      <g id="Group_7211" data-name="Group 7211">
        <g id="Group_7210" data-name="Group 7210">
          <g id="Group_7209" data-name="Group 7209">
            <path id="Path_2588" data-name="Path 2588" d="M644.565,1536.643a38.208,38.208,0,0,1,10.063,1.959,14.2,14.2,0,0,1-.842-3.41,2.709,2.709,0,0,1,.568-1.842,6.481,6.481,0,0,1-4.82,1.842,4.521,4.521,0,0,1-4.252-2.835H640.3c-.048.066-.1.129-.146.195A12.825,12.825,0,0,1,644.565,1536.643Z" fill="#fda654"/>
          </g>
        </g>
      </g>
      <g id="Group_7214" data-name="Group 7214">
        <g id="Group_7213" data-name="Group 7213">
          <g id="Group_7212" data-name="Group 7212">
            <path id="Path_2589" data-name="Path 2589" d="M646,1539.518a12.851,12.851,0,0,0-5.846-6.966c-5.314,7.425-6.086,19.747-6.192,23.9a12.733,12.733,0,0,0,4.237-.729q.459-.162.9-.358l.027-.012a12.836,12.836,0,0,0,1.671-.9l.05-.032a12.847,12.847,0,0,0,1.488-1.121l.051-.044c.23-.2.454-.415.669-.635l.031-.031c.209-.216.412-.439.606-.668l.031-.037q.29-.345.553-.71l.07-.1a12.636,12.636,0,0,0,.931-1.524c.024-.047.049-.094.072-.141.132-.263.257-.529.371-.8.009-.022.017-.045.026-.067.105-.255.2-.514.288-.776.018-.052.036-.1.053-.156.089-.275.169-.555.239-.838.013-.053.024-.106.036-.158q.093-.391.16-.791c.007-.042.015-.083.022-.124.046-.291.08-.586.106-.883q.009-.1.015-.2c.022-.3.037-.611.037-.92A12.725,12.725,0,0,0,646,1539.518Z" fill="#666"/>
          </g>
        </g>
      </g>
      <g id="Group_7217" data-name="Group 7217">
        <g id="Group_7216" data-name="Group 7216">
          <g id="Group_7215" data-name="Group 7215">
            <path id="Path_2590" data-name="Path 2590" d="M644.565,1536.643a12.7,12.7,0,0,1,1.431,2.875,29.916,29.916,0,0,1,9.186,2.1,13.547,13.547,0,0,0-.554-3.013A38.208,38.208,0,0,0,644.565,1536.643Z" fill="#333"/>
          </g>
        </g>
      </g>
      <g id="Group_7220" data-name="Group 7220">
        <g id="Group_7219" data-name="Group 7219">
          <g id="Group_7218" data-name="Group 7218">
            <path id="Path_2591" data-name="Path 2591" d="M655.182,1541.615a29.916,29.916,0,0,0-9.186-2.1,12.725,12.725,0,0,1,.7,4.178c0,.309-.015.616-.037.92q-.006.1-.015.2c-.026.3-.06.592-.106.883-.007.041-.015.082-.022.124q-.067.4-.16.791c-.012.052-.023.1-.036.158-.052.21-.115.416-.177.621l4.752,4.753c2.6-3.016,4.3-6.4,4.3-9.869C655.2,1542.051,655.2,1541.831,655.182,1541.615Z" fill="#e5e5e5"/>
          </g>
        </g>
      </g>
      <g id="Group_7223" data-name="Group 7223">
        <g id="Group_7222" data-name="Group 7222">
          <g id="Group_7221" data-name="Group 7221">
            <path id="Path_2592" data-name="Path 2592" d="M646.084,1547.611c-.017.053-.035.1-.053.156-.088.262-.183.521-.288.776-.009.022-.017.045-.026.067-.114.272-.239.538-.371.8-.023.047-.048.094-.072.141a12.636,12.636,0,0,1-.931,1.524l-.07.1q-.264.364-.553.71l-.031.037c-.194.229-.4.452-.606.668l-.031.031c-.215.22-.439.431-.669.635l-.051.044a12.737,12.737,0,0,1-1.488,1.121l-.05.032a12.836,12.836,0,0,1-1.671.9l-.027.012q-.442.2-.9.358h0v9.233l11.339-11.338q.717-.719,1.364-1.47l-4.752-4.753C646.124,1547.466,646.107,1547.54,646.084,1547.611Z" fill="#fda654"/>
          </g>
        </g>
      </g>
    </g>
    <g id="Group_7225" data-name="Group 7225">
      <path id="Path_2593" data-name="Path 2593" d="M663.09,1547.521l-6.418,9.271a2.971,2.971,0,0,0-1.3-1.292l8.954-12.792a.75.75,0,1,0-1.228-.86l-9.379,13.4a4.189,4.189,0,0,0-1.37.456H648.51l1.554-1.555c.471-.471.943-.979,1.4-1.51,2.935-3.4,4.487-6.981,4.487-10.359,0-.242-.009-.477-.023-.707h0a14.229,14.229,0,0,0-.582-3.178c-.1-.35-.207-.683-.307-1a8.13,8.13,0,0,1-.506-2.2,1.944,1.944,0,0,1,.4-1.363,4.913,4.913,0,0,1,1.446-.978,10.875,10.875,0,0,0,3.66-2.854.753.753,0,0,0,.163-.563.743.743,0,0,0-.291-.509,16.691,16.691,0,0,0-5.96-2.645h0a13.869,13.869,0,0,0-2.995-.343,13.475,13.475,0,0,0-11.258,5.974h0l-.152.2h0c-5.345,7.468-6.208,19.493-6.332,24.316-.023.909-.015,1.437-.015,1.437v19.842a.75.75,0,0,0,.75.75,5.417,5.417,0,0,0,5-5v-8.193l5.727-5.727c.006.005.01.012.016.017l3.149,2.1a4.2,4.2,0,0,0-.359,2.5l-14.149,20.214a.75.75,0,1,0,1.228.86l13.715-19.592c.009.008.014.018.023.027a.75.75,0,0,0,1.06-1.06,1.54,1.54,0,0,1-.182-.255l4.03-5.757a1.942,1.942,0,0,1-.106,1.284.749.749,0,0,0,.392.985.738.738,0,0,0,.3.062c.01,0,.02,0,.031-.005l-16.238,23.454a.75.75,0,0,0,1.234.854l25.511-36.851a.75.75,0,1,0-1.233-.853Zm-19.369,3.136-.055.077c-.166.23-.34.453-.516.664l-.034.039c-.183.217-.373.427-.6.659q-.3.309-.629.6l-.05.042a12.124,12.124,0,0,1-1.392,1.051l-.055.034a12.07,12.07,0,0,1-1.6.858c-.282.125-.567.238-.846.337h0a11.892,11.892,0,0,1-1.414.394c-.1.022-.2.045-.3.064a11.951,11.951,0,0,1-1.411.191c-.029,0-.058,0-.086,0,.171-4.3,1.062-15.184,5.623-22.093.119.076.24.149.357.229.151.1.3.208.448.319.22.167.431.344.639.525.132.116.266.228.394.349.218.208.424.429.627.654.1.11.206.214.3.328a12.27,12.27,0,0,1,.816,1.08,11.935,11.935,0,0,1,2.008,6.638c0,.292-.015.58-.036.878l-.013.176c-.025.281-.057.559-.109.881l-.012.068c-.042.251-.092.5-.148.74l-.036.153c-.048.194-.106.385-.166.583h0l-.059.207v0l-.048.143c-.083.247-.173.491-.271.729l.693.286-.718-.222c-.107.256-.224.507-.348.752l-.069.135A12.22,12.22,0,0,1,643.721,1550.657Zm6.975-14.8c.119-.016.226-.04.34-.06.239-.042.47-.088.686-.146.117-.031.226-.064.336-.1.2-.062.382-.127.558-.2.1-.038.189-.075.278-.115.045-.02.1-.038.141-.058v.008a7.651,7.651,0,0,0,.445,2.237l-.048-.013c-.373-.113-.744-.216-1.115-.313l-.233-.06c-.367-.093-.731-.181-1.09-.26l-.136-.028q-.5-.109-.988-.2l-.192-.037q-.508-.093-.992-.169l-.218-.034c-.321-.05-.634-.095-.932-.135l-.07-.008c-.288-.038-.56-.07-.822-.1l-.164-.018q-.393-.042-.738-.073l-.135-.012-.618-.05h-.011c-.082-.116-.185-.216-.271-.33-.245-.325-.5-.641-.772-.942-.148-.164-.3-.32-.457-.476-.276-.277-.564-.539-.862-.791-.1-.087-.191-.189-.3-.272H644.8a5.187,5.187,0,0,0,4.731,2.835A8.818,8.818,0,0,0,650.7,1535.861Zm3.112,4.446c-.229-.076-.471-.153-.724-.231l-.2-.063q-.49-.145-1.035-.289c-.074-.02-.154-.038-.23-.057q-.44-.112-.911-.217l-.372-.08c-.3-.064-.62-.124-.943-.182-.117-.02-.23-.042-.349-.062-.438-.073-.888-.14-1.356-.2-.073-.009-.151-.015-.225-.023-.306-.035-.612-.07-.93-.1-.1-.257-.225-.505-.342-.756-.066-.144-.123-.29-.2-.432-.019-.037-.032-.076-.051-.113l.091.009c.221.022.45.046.7.075l.017,0c.25.029.516.064.788.1l.2.027c.56.079,1.158.175,1.781.292l.218.041c.626.121,1.275.263,1.933.429l.242.062c.33.086.662.176.993.275l.013,0c.322.1.644.2.964.311l.136.047c.1.379.205.812.286,1.292-.072-.026-.156-.053-.231-.079Zm-2.96,10.73-3.857-3.858c.021-.076.041-.152.061-.229l.038-.164c.065-.276.121-.556.176-.88l.016-.089c.048-.308.084-.619.113-.94l.015-.208c.027-.372.039-.682.039-.973a13.565,13.565,0,0,0-.093-1.5c-.014-.124-.03-.248-.047-.373a13.387,13.387,0,0,0-.274-1.446l0-.011c.081.008.166.014.246.023.171.02.337.042.5.064.287.038.568.078.843.123.162.026.323.052.481.08.278.049.547.1.811.156.133.028.269.053.4.082.35.077.687.157,1.008.239l.137.035c.331.086.644.175.942.263.115.034.221.068.331.1.193.06.382.119.559.178l.331.113c.155.054.3.107.444.159.1.036.2.072.286.107l.1.038c0,.048,0,.1,0,.145C654.453,1545.092,653.21,1548.107,650.848,1551.037Zm4.82-19.508a8.427,8.427,0,0,0-1.458.91l-.835-.418,1.081-2.163a.738.738,0,0,0,.079-.336v-1.542a16.015,16.015,0,0,1,3.784,1.687A10.085,10.085,0,0,1,655.668,1531.529Zm-4.717-4.092a11.817,11.817,0,0,1,2.084.189v1.719l-1.337,2.676a.75.75,0,0,0,.335,1.007l.947.473-.1.062c-.1.062-.218.124-.339.186-.084.043-.17.086-.264.128-.136.061-.29.118-.446.174-.1.036-.2.074-.312.107-.184.055-.389.1-.6.138-.107.021-.206.048-.319.065a7.273,7.273,0,0,1-1.073.081,3.756,3.756,0,0,1-3.544-2.335.75.75,0,0,0-.707-.5h-3.417A11.749,11.749,0,0,1,650.951,1527.437Zm-13.506,46.022a4.06,4.06,0,0,1-2.752,3.382v-18.984c0-.005,0-.245,0-.677.057,0,.113-.014.17-.018.319-.022.636-.058.951-.1.111-.016.223-.025.333-.043q.635-.1,1.257-.269l.039-.008v16.719Zm1.5-17.218q.23-.091.471-.2l.011,0a13.433,13.433,0,0,0,1.771-.952l.053-.034a13.586,13.586,0,0,0,1.574-1.186l.054-.046c.243-.215.482-.441.741-.707.222-.228.438-.466.642-.707l.034-.038c.2-.244.4-.495.583-.749l.076-.107c.182-.256.355-.52.52-.789s.32-.545.464-.824l.077-.15c.14-.278.272-.561.394-.852l.026-.067.024-.06,3.408,3.409c-.286.315-.575.619-.865.908l-2.615,2.616h-2.523a.75.75,0,0,0,0,1.5h1.023l-5.943,5.943Zm10.3,4.547-3.491-2.327,1.26-1.259h5.277l.036.031-2.785,3.979A.744.744,0,0,0,649.241,1560.788Zm4.964-3.628.284-.406c.031.008.062.009.092.019a1.764,1.764,0,0,1,.981,1.179.729.729,0,0,0,.146.233l-.98,1.415A3.538,3.538,0,0,0,654.205,1557.16Z" fill="#1a1a1a"/>
      <circle id="Ellipse_172" data-name="Ellipse 172" cx="1.208" cy="1.208" r="1.208" transform="translate(649.742 1528.314)" fill="#1a1a1a"/>
    </g>
  </g>
</svg>
