<?xml version="1.0" encoding="iso-8859-1"?>
<!-- Generator: Adobe Illustrator 19.0.0, SVG Export Plug-In . SVG Version: 6.00 Build 0)  -->
<svg xmlns="http://www.w3.org/2000/svg" xmlns:xlink="http://www.w3.org/1999/xlink" version="1.1" id="Layer_1" x="0px" y="0px" viewBox="0 0 401.66 401.66" style="enable-background:new 0 0 401.66 401.66;" xml:space="preserve" width="512" height="512">
<g>
	<path style="fill:#9AD14B;" d="M200.383,90.653c-45.92,0-83.15-37.23-83.15-83.15c22.96,0,43.75,9.31,58.8,24.36   C191.073,46.903,200.383,67.692,200.383,90.653z"/>
	<path style="fill:#F95428;" d="M229.153,111.483c82.62,0,140.19,82.01,112.12,159.72l-25.52,70.61c-2.11,5.84-4.84,11.34-8.1,16.42   c-4.46,6.93-9.92,13.1-16.13,18.32h-0.01c-5.62,4.73-11.86,8.68-18.55,11.76c-15.62,7.16-33.49,7.61-49.67,1.88   c-3.83-1.35-7.74-2.34-11.7-2.99c-3.56-0.58-7.17-0.86-10.76-0.86c-7.6,0-15.19,1.28-22.46,3.85c-5.39,1.9-10.95,3.13-16.56,3.65   c-11.26,1.04-22.69-0.75-33.11-5.53c-19.51-8.95-35.18-25.43-42.8-46.5l-25.51-70.61c-28.08-77.71,29.49-159.72,112.11-159.72   h28.33H229.153z"/>
	<g>
		<path style="fill:#E54728;" d="M153.903,341.813l-25.51-70.61c-27.432-75.917,26.883-155.922,106.435-159.576    c-1.879-0.086-3.768-0.145-5.675-0.145h-28.32h-28.33c-82.62,0-140.19,82.01-112.11,159.72l25.51,70.61    c7.62,21.07,23.29,37.55,42.8,46.5c10.42,4.78,21.85,6.57,33.11,5.53c5.61-0.52,11.17-1.75,16.56-3.65    c4.932-1.743,10.013-2.878,15.143-3.438C175.494,377.522,161.103,361.721,153.903,341.813z"/>
	</g>
	<path style="fill:#FFFFFF;" d="M288.305,353.286c-1.387,0-2.79-0.384-4.043-1.189c-3.486-2.237-4.499-6.876-2.262-10.362   c2.052-3.198,3.757-6.659,5.068-10.287l25.521-70.613c9.956-27.561,6.007-57.125-10.832-81.112   c-7.268-10.353-16.292-18.825-26.823-25.183c-3.546-2.141-4.685-6.75-2.544-10.297c2.141-3.546,6.751-4.686,10.297-2.544   c12.326,7.441,22.873,17.334,31.346,29.404c19.687,28.043,24.302,62.606,12.663,94.829l-25.521,70.614   c-1.69,4.678-3.895,9.15-6.551,13.289C293.192,352.068,290.774,353.286,288.305,353.286z M252.306,144.72   c-4.142,0-7.505-3.358-7.505-7.5s3.353-7.5,7.495-7.5h0.01c4.143,0,7.5,3.358,7.5,7.5S256.448,144.72,252.306,144.72z"/>
	<path style="fill:#90BC42;" d="M200.383,90.653c-45.92,0-83.15-37.23-83.15-83.15L200.383,90.653z"/>
	<path style="fill:#333333;" d="M332.862,157.896c-24.05-34.261-61.853-53.91-103.713-53.91H208.33v-0.533   c0-21.625,10.714-41.772,28.659-53.896c3.433-2.319,4.335-6.981,2.017-10.413s-6.98-4.334-10.414-2.017   c-10.361,7-18.762,16.174-24.762,26.691C192.364,26.892,157.88,0,117.232,0c-4.142,0-7.5,3.358-7.5,7.5   c0,47.68,37.001,86.879,83.797,90.395c-0.128,1.843-0.199,3.695-0.199,5.559v0.533h-20.829c-41.855,0-79.653,19.648-103.702,53.907   c-24.05,34.26-29.686,76.488-15.463,115.856v0l25.517,70.613c8.196,22.679,24.788,40.708,46.719,50.764   c11.402,5.23,24.173,7.363,36.929,6.178c6.216-0.575,12.395-1.935,18.366-4.042c6.434-2.271,13.15-3.423,19.963-3.423   c3.217,0,6.432,0.257,9.551,0.764c3.571,0.583,7.072,1.477,10.405,2.656c8.292,2.936,16.828,4.398,25.28,4.398   c10.335,0,20.545-2.186,30.027-6.535c7.232-3.325,13.963-7.575,20.012-12.637c0.082-0.063,0.163-0.128,0.242-0.195   c6.859-5.767,12.785-12.5,17.611-20.009c3.604-5.607,6.582-11.637,8.849-17.92l25.517-70.613   C362.547,234.382,356.911,192.156,332.862,157.896z M146.89,60.995c-12.408-12.408-19.975-28.367-21.752-45.584   c35.417,3.693,63.644,31.919,67.336,67.337C175.256,80.97,159.297,73.402,146.89,60.995z M334.217,268.653l-25.518,70.616   c-1.887,5.228-4.363,10.243-7.359,14.904c-3.961,6.163-8.814,11.698-14.428,16.454c-0.08,0.062-0.159,0.125-0.236,0.191   c-5.078,4.281-10.747,7.874-16.842,10.676c-13.666,6.268-29.308,6.847-44.043,1.628c-4.173-1.476-8.545-2.593-12.999-3.32   c-3.917-0.637-7.942-0.959-11.962-0.959c-8.518,0-16.915,1.439-24.955,4.278c-4.806,1.695-9.771,2.789-14.761,3.25   c-10.146,0.944-20.274-0.741-29.29-4.876c-18.245-8.366-32.047-23.363-38.865-42.228l-25.517-70.613v0   c-12.54-34.708-7.57-71.937,13.632-102.142c21.202-30.203,54.525-47.525,91.425-47.525h56.648   c36.906,0,70.233,17.323,91.436,47.528C341.787,196.718,346.756,233.946,334.217,268.653z"/>
</g>















</svg>
